PathFileType	4	(X/Y/Z)	C:/Users/beibeiliu/ov580/test_trc/User3\sequence.31_training_dense_right.trc
DataRate	CameraRate	NumFrames	NumMarkers	Units	OrigDataRate	OrigDataStartFrame	OrigNumFrames
120	120	20	19	mm	120	235	268
Frame#	Time	ThumbCMC			ThumbMCP			ThumbIP			ThumbTip			IndexMCP			IndexPIP			IndexTip			MiddleMCP			MiddlePIP			MiddleTip			RingMCP			RingPIP			RingTip			PinkyMCP			PinkyPIP			PinkyTip			BackHand1			BackHand2			BackHand3	
		X0	Y0	Z0	X1	Y1	Z1	X2	Y2	Z2	X3	Y3	Z3	X4	Y4	Z4	X5	Y5	Z5	X6	Y6	Z6	X7	Y7	Z7	X8	Y8	Z8	X9	Y9	Z9	X10	Y10	Z10	X11	Y11	Z11	X12	Y12	Z12	X13	Y13	Z13	X14	Y14	Z14	X15	Y15	Z15	X16	Y16	Z16	X17	Y17	Z17	X18	Y18	Z18	
234	1.95	137.536	0.205942	33.6499	116.702	10.2487	4.27902	126.922	20.9136	-23.9738	149.79	26.7065	-37.1042	133.567	47.3769	-22.2377	134.072	17.8353	-34.0055	143.278	8.24579	-2.80344	153.578	48.9259	-26.1486	149.683	16.4114	-36.8891	159.687	4.89056	-3.75089	173.049	49.4904	-25.6196	168.177	18.9703	-40.5154	162.249	5.9414	-10.1821	191.56	54.32	-17.9085	183.289	62.7164	-35.0578	179.869	76.7881	-49.889	188.305	42.5997	28.0436	192.532	22.0356	49.4583	159.571	28.2982	47.4564	
235	1.95833	135.212	3.10415	26.7396	118.275	7.37705	-3.00525	133.568	21.3227	-30.8472	156.744	23.8811	-40.0879	137.686	47.1106	-26.0981	138.829	19.5774	-40.6376	143.385	5.18518	-7.24816	153.91	47.6801	-31.0583	154.574	18.6605	-44.2284	165.021	5.40335	-7.6656	176.049	46.0351	-30.9382	174.125	18.4916	-41.9073	166.026	3.66169	-14.1665	191.423	51.3128	-14.8749	186.307	60.3444	-34.5357	182.294	73.5847	-48.8494	183.82	40.8102	30.9259	192.756	17.736	49.9714	156.892	27.5983	42.7913	
236	1.96667	136.149	-1.80648	29.6745	120.807	7.98046	-1.29064	132.21	23.4218	-30.0348	153.986	25.4424	-39.7696	135.08	42.9345	-26.9308	138.924	10.9141	-39.8437	143.63	2.75522	-8.4473	155.99	44.5405	-31.1663	152.496	11.035	-42.6633	160.459	2.51818	-4.2214	176.235	43.7235	-32.3076	173.856	13.7106	-44.1715	167.519	1.27685	-17.2444	193.213	52.3022	-23.7565	194.097	61.1882	-42.8986	191.867	71.1664	-57.0236	185.159	42.9703	26.3463	194.096	22.1354	44.873	159.571	28.9529	40.1377	
237	1.975	136.404	-0.886945	29.3676	124.313	5.37111	-6.00275	135.985	12.1587	-34.3361	163.349	12.7405	-43.5711	141.119	39.4394	-30.3542	143.056	7.57739	-39.4313	147.567	0.600071	-8.26132	163.018	46.8323	-34.8891	159.063	15.2491	-50.1839	163.989	0.399569	-17.0337	182.686	36.7819	-36.4715	175.434	10.8332	-46.5854	167.827	-1.41445	-13.6439	198.95	45.9145	-24.6826	195.629	50.5	-38.4047	195.076	63.9787	-55.3936	189.661	38.8906	24.9867	197.191	19.1145	48.442	161.784	31.7738	39.5222	
238	1.98333	137.633	-2.66162	23.9921	124.632	5.78563	-10.156	134.041	12.6484	-37.8714	164.79	14.8503	-43.9508	143.443	33.0152	-39.1097	149.32	0.867	-46.2015	150.451	-5.01459	-16.4475	165.597	35.7068	-42.8277	166.075	3.56582	-50.7029	165.721	-3.81658	-13.0171	186.576	32.6452	-36.4308	178.375	3.11434	-46.5921	172.457	-6.82812	-15.9613	197.147	42.0326	-25.1823	198.512	50.7058	-45.2396	194.222	61.2515	-61.6616	188.022	37.5079	19.9839	191.051	21.4671	47.1148	159.438	27.3902	34.5474	
239	1.99167	138.664	-5.02758	22.0057	126.888	3.05543	-10.4953	136.535	13.9964	-41.6479	162.179	14.5192	-49.1586	148.208	31.0831	-39.2566	149.056	1.42635	-49.4631	150.087	-11.1578	-16.1551	164.467	29.3494	-42.8712	166.47	-2.27833	-47.7547	169.9	-7.52157	-10.0044	189.175	32.2432	-37.6194	185.484	0.950443	-47.0578	176.053	-7.41993	-16.1967	206.692	39.6578	-25.3937	203.321	47.0816	-46.8176	202.125	54.9218	-62.6306	193.55	34.625	19.5671	192.77	15.0218	45.6031	159.605	23.3716	34.3752	
240	2	135.878	-7.34599	18.3907	126.886	-1.03374	-14.7825	142.091	7.18133	-42.9067	173.049	9.01929	-47.5209	154.569	19.18	-48.5561	157.34	-13.0939	-51.8013	153.243	-15.505	-19.6807	170.437	20.4431	-48.835	175.009	-12.6775	-49.9448	169.398	-14.2288	-12.4026	190.585	23.7217	-42.7	192.134	-7.08391	-48.667	181.745	-15.2584	-18.4927	203.539	34.1004	-26.138	206.039	41.1752	-47.9518	208.387	51.1276	-66.2448	186.815	32.9555	15.6038	189.207	24.117	40.1908	153.342	22.2397	27.7992	
241	2.00833	136.773	-11.4249	13.8394	130.239	-3.88938	-19.3521	143.077	7.80581	-46.652	171.953	11.8775	-56.4754	158.91	19.2988	-49.9836	163.823	-13.3463	-51.592	158.072	-15.0633	-18.1335	179.15	21.8103	-48.8506	180.955	-8.2064	-53.5247	173.016	-15.7862	-16.398	197.094	25.382	-36.7731	199.142	-6.28997	-47.124	184.188	-15.8155	-17.2334	205.566	32.6818	-25.4523	211.974	36.2377	-41.6988	213.966	44.0027	-62.069	188.224	30.1102	20.3516	183.093	14.7341	44.3383	155.354	20.5536	24.0808	
242	2.01667	136.219	-9.93578	14.5316	137.636	-4.74643	-20.3029	150.964	0.735946	-44.0269	178.352	2.79267	-55.3427	162.729	11.8979	-49.6304	162.674	-21.609	-49.3647	153.41	-20.1246	-17.5705	184.565	13.5813	-48.6891	179.603	-18.6218	-52.7617	169.719	-21.808	-16.2577	199.21	16.3581	-41.6272	200.42	-13.0093	-48.7092	181.322	-21.2256	-19.39	209.327	23.0342	-23.4586	211.201	25.2835	-44.3234	216.24	32.6307	-65.9283	188.094	29.3613	16.7528	189.632	17.4027	45.4989	158.822	20.5871	22.0933	
243	2.025	140.647	-13.2428	15.044	135.134	-12.0483	-17.1077	152.511	-4.32628	-49.9632	179.587	-2.95585	-56.4269	157.62	7.24803	-52.3415	162.519	-25.2475	-52.9212	157.079	-24.1551	-19.7861	179.326	5.94126	-49.9084	181.809	-26.4903	-48.4462	173.538	-22.3375	-9.07687	196.363	5.76929	-48.5835	198.035	-22.819	-47.2668	181.115	-24.6481	-15.7034	213.789	19.088	-34.2212	216.983	16.9948	-55.0521	219.99	20.4097	-73.527	192.57	29.3909	7.85827	191.001	19.7507	37.4176	157.152	19.0654	20.6448	
244	2.03333	140.219	-11.8618	16.3262	130.679	-9.16042	-18.0048	148.345	-6.89759	-43.5263	171.652	-10.9921	-55.8159	160.121	1.59468	-52.419	157.678	-32.3086	-53.1683	157.031	-26.5929	-16.7445	176.549	-3.9101	-55.9334	181.483	-33.7506	-46.7961	174.223	-23.0456	-9.38894	198.272	-1.91088	-46.794	191.938	-32.0217	-43.0679	182.118	-24.4684	-8.27571	213.648	12.5749	-38.4013	220.017	9.11191	-58.4692	227.482	12.5521	-78.6445	193.867	28.5363	1.50376	194.227	18.817	29.0998	160.933	18.0975	15.2723	
245	2.04167	139.315	-7.83047	18.1014	136.702	-12.0722	-14.2411	145.275	-14.6001	-47.3355	170.019	-19.7776	-58.8106	159.868	-4.66518	-51.2276	155.121	-36.0348	-48.5923	152.357	-34.3647	-12.7047	179.398	-6.46591	-53.2161	174.251	-37.0912	-50.758	166.212	-29.8629	-12.2492	197.931	-5.71802	-46.0478	193.434	-36.9045	-47.0271	179.227	-36.7473	-18.1772	217.384	1.87992	-33.6892	220.806	-0.776883	-54.5042	220.167	3.14987	-76.0839	202.032	19.8158	6.10657	195.481	15.7088	34.9331	166.984	21.2591	14.7426	
246	2.05	145.264	-3.19744	20.2113	133.941	-9.00891	-8.58537	141.451	-18.9793	-37.5333	161.488	-30.2527	-49.0404	156.546	-8.79895	-54.2674	147.751	-40.423	-50.9459	150.792	-37.6542	-19.6389	174.033	-15.5786	-53.0847	166.407	-46.2194	-48.2792	166.531	-36.2425	-8.06302	198.586	-20.5448	-45.0035	185.285	-48.9337	-42.2431	175.847	-41.6145	-9.7578	213.402	-10.0361	-39.0351	216.962	-14.5047	-59.7998	222.175	-12.6377	-81.5408	202.168	16.4162	2.67608	204.011	12.8886	30.1358	169.267	22.4614	15.489	
247	2.05833	143.92	-0.667197	19.9805	134.858	-8.86136	-10.265	143.819	-22.1123	-36.7068	167.224	-35.5103	-47.0015	157.196	-12.6225	-51.7384	144.58	-44.1827	-47.6964	142.937	-37.2298	-16.9215	172.388	-23.6293	-50.6371	161.256	-51.8856	-39.3533	162.615	-32.7278	-3.11789	192.771	-32.1528	-47.6275	178.7	-54.5384	-39.3044	169.458	-40.9248	-6.40333	212.923	-20.7743	-41.1789	215.355	-26.851	-55.5135	213.278	-30.0642	-76.4527	204.799	10.2355	-2.60869	203.853	12.6615	27.6618	170.654	20.6461	9.93803	
248	2.06667	144.967	-0.289668	19.289	130.844	-11.3619	-11.019	136.877	-27.512	-36.0003	155.584	-43.8989	-46.6753	148.511	-16.4651	-50.0092	135.313	-45.4882	-40.1256	133.882	-49.4635	-7.24305	166.219	-26.802	-53.702	152.442	-51.1428	-42.1242	159.601	-32.2021	-3.48412	187.983	-34.2736	-46.4216	172.323	-57.7932	-33.2136	168.888	-43.0922	-4.33172	210.147	-28.776	-38.7825	206.617	-38.0552	-61.3798	209.685	-44.3303	-79.8607	203.491	4.19264	-5.51801	208.487	5.73282	24.3974	177.709	17.405	11.429	
249	2.075	143.904	2.31453	21.0765	127.069	-10.6045	-3.34271	130.993	-27.9296	-31.8479	149.313	-44.7071	-42.8486	140.535	-17.3042	-47.1224	127.589	-43.1671	-35.1246	130.191	-47.6315	-2.80005	160.865	-30.701	-51.0925	141.561	-50.7222	-33.8409	150.186	-32.4989	-1.05455	175.489	-33.6886	-46.4479	160.773	-59.5256	-30.6366	157.426	-40.2482	-3.9154	202.934	-36.1296	-42.8789	200.25	-45.2412	-55.827	201.495	-54.7288	-75.8135	203.059	2.47362	-6.07985	204.484	5.11597	24.9719	177.387	18.8585	8.91802	
250	2.08333	146.395	4.92489	19.3086	123.891	-7.69528	-11.2003	133.309	-30.3294	-32.3533	157.942	-49.2809	-34.688	137.24	-12.5625	-48.4243	121.525	-35.9835	-30.3775	138.697	-28.9125	-4.87338	150.743	-27.4958	-48.579	134.064	-46.7924	-29.3776	151.744	-28.3932	1.78988	169.333	-39.6161	-47.739	150.72	-59.2277	-29.2022	153.624	-39.0806	-4.41183	193.087	-43.1648	-47.0408	190.351	-54.9005	-60.5612	191.387	-65.0396	-82.8521	202.17	-4.61059	-12.0803	207.832	-2.19386	18.3624	180.308	15.8204	3.54215	
251	2.09167	144.807	8.26805	19.4275	126.794	-1.90887	-6.62489	125.645	-20.1882	-35.9901	143.185	-41.4638	-44.315	140.11	-11.1185	-48.4938	119.544	-33.1809	-31.6727	133.876	-24.2914	-1.84196	154.095	-28.8348	-48.0349	132.435	-45.0314	-27.8218	153.463	-23.1925	3.24704	169.428	-42.645	-41.8405	146.202	-53.5702	-23.1223	154.448	-34.2993	1.65985	189.923	-42.7636	-40.915	183.083	-57.2304	-55.9343	178.854	-65.542	-73.635	199.923	-5.44698	-12.6316	206.333	-3.89147	20.1061	179.657	17.239	1.92752	
252	2.1	151.435	12.609	12.8116	129.172	2.09518	-7.3298	119.527	-19.5927	-32.7473	126.199	-43.3585	-39.7354	133.078	-14.1595	-45.934	114.112	-29.713	-25.5283	133.875	-20.5638	1.48826	142.635	-32.8384	-45.2211	125.602	-42.4805	-19.0156	148.396	-25.1482	3.42466	153.853	-45.5351	-40.3358	138.13	-54.2663	-14.5032	147.787	-33.1825	4.37527	181.454	-49.3333	-41.4402	174.414	-58.9718	-53.7799	167.809	-69.3492	-77.0112	203.035	-17.2324	-15.9952	210.317	-9.1066	13.4118	186.974	13.6782	-0.0253184	
253	2.10833	152.304	16.4523	15.8895	128.292	6.27935	-10.0666	118.491	-12.9962	-32.9421	128.469	-36.6732	-36.458	136.076	-6.22562	-49.0382	114.346	-22.0968	-30.2999	134.56	-11.3255	-4.20928	144.352	-25.6122	-47.6665	122.749	-35.899	-25.2236	149.104	-19.2821	1.34485	157.558	-42.2454	-43.1345	132.602	-47.4557	-22.2218	146.558	-30.099	0.0858558	174.774	-48.3204	-44.1104	165.797	-59.593	-58.5646	158.404	-66.6757	-77.911	200.831	-15.9206	-15.6883	208.906	-9.7719	13.9508	188.293	13.6752	-1.93986	
